<?xml version="1.0"?>
<!--Icons from directory ""-->
<svg xmlns="http://www.w3.org/2000/svg" width="40" height="517" viewBox="0 0 40 517"><svg xmlns:xlink="http://www.w3.org/1999/xlink" id="add" xml:space="preserve" height="20" viewBox="0 0 20 20" width="20" version="1.1" y="0" x="0px" enable-background="new 0 0 20 20"><g fill="#9F9E9E">	<path d="m12.448 17.552c0 1.352-1.096 2.448-2.448 2.448s-2.447-1.096-2.447-2.448v-15.104c0-1.352 1.095-2.448 2.447-2.448s2.448 1.096 2.448 2.448v15.104z"/>	<path d="m17.553 7.552c1.351 0 2.447 1.096 2.447 2.448 0 1.351-1.096 2.448-2.447 2.448h-15.104c-1.353 0-2.449-1.096-2.449-2.448 0-1.353 1.096-2.449 2.449-2.449h15.104z"/></g></svg><svg xmlns:xlink="http://www.w3.org/1999/xlink" id="album" xml:space="preserve" height="18" viewBox="2 2.909 20 18.182" width="20" version="1.1" y="20" x="0px" enable-background="new 2 2.909 20 18.182"><g id="album-miu">	<g id="album-Artboard-1" transform="translate(-467 -299)">		<path id="album-editor-album-collection-glyph" d="m469.13 305.54c-0.071 0-0.128 0.053-0.128 0.117v14.311c0 0.064 0.057 0.117 0.128 0.117h19.744c0.071 0 0.128-0.053 0.128-0.117v-14.311c0-0.065-0.057-0.117-0.128-0.117h-19.74zm1.69-3.63v0.909h16.363v-0.909h-16.36zm-0.91 1.82v0.909h18.182v-0.909h-18.18z"/>	</g></g></svg><svg xmlns:xlink="http://www.w3.org/1999/xlink" id="arrow_left" xml:space="preserve" height="26" viewBox="0 0 15.969 26.015" width="16" version="1.1" y="38" x="0px" enable-background="new 0 0 15.969 26.015">		<path fill="#A0A09F" clip-rule="evenodd" d="m15.472 21.943l-8.962-8.949 8.952-8.938c0.787-0.786 0.627-2.22-0.356-3.201-0.983-0.982-2.419-1.142-3.206-0.356l-9.68 9.665c-0.474 0.122-0.946 0.379-1.346 0.778-0.58 0.579-0.867 1.31-0.854 1.976-0.083 0.713 0.203 1.531 0.837 2.164 0.403 0.402 0.881 0.658 1.36 0.776l9.675 9.661c0.787 0.784 2.225 0.62 3.214-0.367s1.152-2.424 0.366-3.209z" fill-rule="evenodd"/></svg><svg xmlns:xlink="http://www.w3.org/1999/xlink" id="arrow_right" xml:space="preserve" height="26" viewBox="0 0 15.844 25.859" width="16" version="1.1" y="64" x="0px" enable-background="new 0 0 15.844 25.859">		<path fill="#A0A09F" clip-rule="evenodd" d="m15.826 12.841c0.012-0.662-0.273-1.389-0.849-1.964-0.396-0.396-0.865-0.652-1.335-0.773l-9.603-9.608c-0.782-0.781-2.206-0.622-3.181 0.354-0.977 0.977-1.135 2.401-0.354 3.182l8.881 8.884-8.893 8.896c-0.779 0.779-0.616 2.207 0.364 3.189 0.981 0.98 2.409 1.145 3.188 0.363l9.599-9.602c0.476-0.116 0.95-0.371 1.351-0.771 0.63-0.628 0.914-1.441 0.832-2.15z" fill-rule="evenodd"/></svg><svg xmlns:xlink="http://www.w3.org/1999/xlink" id="cam" xml:space="preserve" height="32" viewBox="0 0 40 32" width="40" version="1.1" y="90" x="0px" enable-background="new 0 0 40 32">	<path d="m36.769 5.101h-6.49l-3.885-4.08s-0.02-0.02-0.028-0.02l-0.021-0.021c-0.576-0.6-1.355-0.98-2.241-0.98h-8.076c-0.942 0-1.779 0.42-2.365 1.09v0.011l-3.798 4h-6.634c-1.789 0-3.231 1.459-3.231 3.319v20.21c0 1.859 1.442 3.37 3.231 3.37h33.539c1.778 0 3.23-1.511 3.23-3.37v-20.21c-0.001-1.858-1.453-3.319-3.231-3.319zm-16.77 21.85c-4.895 0-8.885-4.161-8.885-9.261 0-5.109 3.99-9.26 8.885-9.26 4.904 0 8.885 4.15 8.885 9.26 0 5.1-3.981 9.261-8.885 9.261zm16.163-16.5c-0.74 0-1.347-0.63-1.347-1.41s0.605-1.41 1.347-1.41 1.347 0.629 1.347 1.41c0 0.78-0.606 1.41-1.347 1.41z"/>	<path d="m19.999 10.69c-3.711 0-6.711 3.131-6.711 7 0 3.86 3 7 6.711 7 3.702 0 6.712-3.131 6.712-7s-3.01-7-6.712-7z"/></svg><svg xmlns:xlink="http://www.w3.org/1999/xlink" id="close" xml:space="preserve" height="26" viewBox="0 0 26.392 26.015" width="26" version="1.1" y="122" x="0px" enable-background="new 0 0 26.392 26.015">		<path fill="#A0A09F" clip-rule="evenodd" d="m25.896 21.943l-8.963-8.949 8.951-8.938c0.787-0.786 0.628-2.219-0.355-3.201-0.984-0.982-2.42-1.142-3.206-0.356l-9.181 9.167-9.103-9.108c-0.782-0.781-2.206-0.622-3.181 0.354-0.977 0.977-1.135 2.401-0.354 3.182l8.881 8.884-8.893 8.896c-0.779 0.779-0.616 2.207 0.364 3.189 0.981 0.98 2.409 1.145 3.188 0.363l9.081-9.083 9.188 9.175c0.786 0.784 2.225 0.62 3.214-0.367 0.99-0.986 1.155-2.423 0.369-3.208z" fill-rule="evenodd"/></svg><svg xmlns:xlink="http://www.w3.org/1999/xlink" id="comments" xml:space="preserve" height="17" viewBox="246 247.395 20 17.209" width="20" version="1.1" y="148" x="0px" enable-background="new 246 247.395 20 17.209"><path d="m256.15 247.4c-5.522-0.109-10.068 3.294-10.153 7.6-0.029 1.498 0.484 2.907 1.399 4.113 1.573 2.021-0.144 5.494-0.144 5.494l5.068-2.183c1.092 0.345 2.279 0.546 3.522 0.57 5.522 0.108 10.068-3.294 10.153-7.6 0.08-4.31-4.32-7.88-9.85-7.99m-4.43 9.03c-0.68 0-1.232-0.551-1.232-1.231s0.552-1.232 1.232-1.232 1.232 0.552 1.232 1.232-0.54 1.23-1.23 1.23m4.11 0c-0.681 0-1.232-0.551-1.232-1.231s0.551-1.232 1.232-1.232 1.231 0.552 1.231 1.232-0.55 1.23-1.23 1.23m4.11 0c-0.681 0-1.231-0.551-1.231-1.231s0.551-1.232 1.231-1.232 1.231 0.552 1.231 1.232-0.55 1.23-1.23 1.23" fill="#323232"/></svg><svg xmlns:xlink="http://www.w3.org/1999/xlink" id="delete" xml:space="preserve" height="15" viewBox="63.5 61.931 12 15.139" width="12" version="1.1" y="165" x="0px" enable-background="new 63.5 61.931 12 15.139">	<path d="m75.197 64.264v-0.036c0-1.269-0.767-2.298-1.712-2.298h-7.972c-0.946 0-1.712 1.029-1.712 2.298v0.036h11.396z"/>	<path d="m75.258 66.223c-0.19-0.224-0.47-0.353-0.764-0.353h-9.99c-0.294 0-0.573 0.129-0.764 0.353s-0.274 0.52-0.229 0.81l1.452 9.188c0.077 0.489 0.498 0.849 0.993 0.849h7.084c0.495 0 0.916-0.359 0.993-0.849l1.452-9.188c0.048-0.29-0.036-0.586-0.227-0.81zm-8.577 9.48c-0.017 0.002-0.034 0.003-0.051 0.003-0.294 0-0.545-0.226-0.571-0.525l-0.601-6.867c-0.028-0.315 0.206-0.594 0.522-0.622 0.313-0.034 0.595 0.206 0.622 0.522l0.601 6.867c0.028 0.316-0.205 0.595-0.522 0.622zm3.392-0.571c0 0.316-0.257 0.574-0.574 0.574s-0.575-0.258-0.575-0.574v-6.894c0-0.317 0.257-0.575 0.575-0.575 0.317 0 0.574 0.257 0.574 0.575v6.894zm2.792 0.049c-0.025 0.3-0.276 0.524-0.571 0.524-0.016 0-0.033 0-0.051-0.002-0.315-0.027-0.55-0.307-0.521-0.622l0.601-6.867c0.027-0.316 0.307-0.555 0.622-0.522 0.316 0.027 0.55 0.306 0.521 0.622l-0.601 6.867z"/></svg><svg xmlns:xlink="http://www.w3.org/1999/xlink" id="edit" xml:space="preserve" height="20" viewBox="4.5 -0.5 20 20" width="20" version="1.1" y="180" x="0px" enable-background="new 4.5 -0.5 20 20"><path d="m22.894 5.813c-0.549-0.909-1.227-1.798-2.057-2.622-0.838-0.833-1.743-1.516-2.669-2.064l1.626-1.627s2.354 0 3.529 1.176c1.177 1.177 1.177 3.53 1.177 3.53l-1.606 1.607zm-13.688 13.687h-4.706v-4.706l0.564-0.565c0.957 0.454 1.907 1.09 2.763 1.944 0.856 0.857 1.492 1.806 1.943 2.762l-0.564 0.565zm12.33-12.33l-10.408 10.407c-0.549-0.908-1.227-1.8-2.056-2.623-0.838-0.834-1.744-1.516-2.67-2.063l10.428-10.426c0.956 0.45 1.907 1.087 2.762 1.942 0.857 0.857 1.494 1.807 1.944 2.763z"/></svg><svg xmlns:xlink="http://www.w3.org/1999/xlink" id="envelope" xml:space="preserve" height="13" viewBox="61.999 64.539 15 13" width="15" version="1.1" y="200" x="0px" enable-background="new 61.999 64.539 15 13">	<path d="m69.5 69.851l6.37-5.287c-0.069-0.015-0.14-0.025-0.211-0.025h-12.318c-0.072 0-0.143 0.01-0.212 0.025l6.371 5.287z"/>	<path d="m69.9 71.896c-0.009 0.008-0.019 0.012-0.027 0.02-0.009 0.006-0.019 0.012-0.028 0.02-0.05 0.034-0.102 0.062-0.155 0.079-0.005 0.003-0.011 0.003-0.016 0.006-0.058 0.017-0.116 0.028-0.175 0.028h-0.001c-0.059 0-0.117-0.012-0.175-0.028-0.005-0.003-0.011-0.003-0.017-0.006-0.053-0.018-0.104-0.045-0.154-0.079-0.01-0.008-0.019-0.014-0.028-0.02-0.009-0.008-0.018-0.012-0.027-0.02l-7.078-5.876c-0.013 0.1-0.021 0.201-0.021 0.306v9.429c0 0.985 0.601 1.785 1.341 1.785h12.318c0.74 0 1.341-0.8 1.341-1.785v-9.429c0-0.104-0.008-0.206-0.021-0.306l-7.077 5.876z"/></svg><svg xmlns:xlink="http://www.w3.org/1999/xlink" id="heart" xml:space="preserve" height="17" viewBox="54 55.571 20 16.858" width="20" version="1.1" y="213" x="0px" enable-background="new 54 55.571 20 16.858"><path d="m74 60.858c0-2.92-2.367-5.287-5.287-5.287-2.06 0-3.841 1.181-4.713 2.901-0.873-1.72-2.653-2.901-4.713-2.901-2.919 0-5.287 2.367-5.287 5.287 0 5.522 8.87 11.571 10 11.571 1.131 0.001 10-6.022 10-11.571z" fill="#232323"/></svg><svg xmlns:xlink="http://www.w3.org/1999/xlink" id="home" xml:space="preserve" height="22" viewBox="59.499 58.652 20 21.696" width="20" version="1.1" y="230" x="0px" enable-background="new 59.499 58.652 20 21.696"><path d="m79.116 66.476l-9.058-7.619c-0.326-0.274-0.801-0.274-1.127 0l-9.121 7.673c-0.282 0.237-0.385 0.625-0.259 0.97 0.126 0.346 0.455 0.576 0.823 0.576h1.331v10.171c0 1.16 0.941 2.101 2.101 2.101h2.976v-5.952c0-0.386 0.313-0.7 0.7-0.7h4.026c0.387 0 0.7 0.314 0.7 0.7v5.952h2.977c1.16 0 2.101-0.94 2.101-2.101v-10.171h1.33 0.008c0.483 0 0.875-0.392 0.875-0.875 0-0.302-0.152-0.568-0.383-0.725z" fill="#020202"/></svg><svg xmlns:xlink="http://www.w3.org/1999/xlink" id="like" xml:space="preserve" height="17" viewBox="0 0 20 16.858" width="20" version="1.1" y="252" x="0px" enable-background="new 0 0 20 16.858"><path d="m20 5.287c0-2.92-2.367-5.287-5.287-5.287-2.06 0-3.841 1.181-4.713 2.901-0.873-1.72-2.652-2.901-4.713-2.901-2.92 0-5.287 2.367-5.287 5.287 0 5.522 8.869 11.571 10 11.571s10-6.022 10-11.571z" fill="#fff"/></svg><svg xmlns:xlink="http://www.w3.org/1999/xlink" id="loupe" xml:space="preserve" height="40" viewBox="0 0 39.985 40.001" width="40" version="1.1" y="269" x="0px" enable-background="new 0 0 39.985 40.001">		<path fill="#fff" clip-rule="evenodd" d="m39.376 36.437l-8.815-8.858c-0.26-0.262-0.574-0.43-0.904-0.524 2.242-2.847 3.59-6.437 3.59-10.35 0-9.226-7.442-16.705-16.624-16.705-9.181 0-16.623 7.479-16.623 16.705s7.442 16.705 16.623 16.705c3.979 0 7.627-1.408 10.489-3.75 0.096 0.318 0.259 0.62 0.509 0.871l8.816 8.859c0.812 0.815 2.127 0.815 2.938 0s0.813-2.138 0.001-2.953zm-22.877-6.435c-7.456 0-13.499-6.044-13.499-13.501s6.043-13.501 13.499-13.501 13.499 6.044 13.499 13.501c-0.001 7.457-6.044 13.501-13.499 13.501z" fill-rule="evenodd"/><g fill="#fff">	<path d="m18.581 22.919c0 1.149-0.932 2.081-2.081 2.081-1.148 0-2.081-0.932-2.081-2.081v-12.838c0-1.149 0.933-2.081 2.081-2.081 1.149 0 2.081 0.932 2.081 2.081v12.838z"/>	<path d="m22.92 14.419c1.148 0 2.08 0.932 2.08 2.082 0 1.148-0.932 2.081-2.08 2.081h-12.838c-1.15-0.001-2.082-0.933-2.082-2.082s0.932-2.082 2.082-2.082h12.838z"/></g></svg><svg xmlns:xlink="http://www.w3.org/1999/xlink" id="more" xml:space="preserve" height="4" viewBox="0 0 17 4.25" width="17" version="1.1" y="309" x="0px" enable-background="new 0 0 17 4.25"><g fill="#fff">	<circle cy="2.125" cx="2.125" r="2.125"/>	<circle cy="2.125" cx="8.5" r="2.125"/>	<circle cy="2.125" cx="14.875" r="2.125"/></g></svg><svg xmlns:xlink="http://www.w3.org/1999/xlink" id="name" xml:space="preserve" height="16" viewBox="61.706 59.023 15 16.102" width="15" version="1.1" y="313" x="0px" enable-background="new 61.706 59.023 15 16.102">	<circle cy="63.58" cx="69.206" r="4.557"/>	<path d="m72.143 68.857c-0.877 0.347-1.875 0.547-2.937 0.553-1.062-0.006-2.061-0.206-2.937-0.553-1.808 1.195-4.564 2.527-4.564 6.268h15c0-3.74-2.756-5.072-4.562-6.268z"/></svg><svg xmlns:xlink="http://www.w3.org/1999/xlink" id="no_like" xml:space="preserve" height="20" viewBox="0 0 23 19.858" width="23" version="1.1" y="329" x="0px" enable-background="new 0 0 23 19.858"><path stroke="#fff" stroke-width="3" stroke-miterlimit="10" d="m21.5 6.787c0-2.92-2.367-5.287-5.287-5.287-2.06 0-3.841 1.181-4.713 2.901-0.873-1.72-2.652-2.901-4.713-2.901-2.92 0-5.287 2.367-5.287 5.287 0 5.522 8.869 11.571 10 11.571s10-6.022 10-11.571z" fill="none"/></svg><svg xmlns:xlink="http://www.w3.org/1999/xlink" id="off" xml:space="preserve" height="15" viewBox="0 0 14.895 15" width="15" version="1.1" y="349" x="0px" enable-background="new 0 0 14.895 15"><g clip-rule="evenodd" fill-rule="evenodd">	<path d="m13.16 7.322c-0.017-0.497-0.142-1.175-0.399-1.833-0.361-0.926-0.918-1.703-1.688-2.331-0.399-0.326-0.509-0.675-0.36-1.071 0.196-0.525 0.814-0.754 1.264-0.421 0.379 0.281 0.728 0.612 1.048 0.959 0.727 0.788 1.24 1.711 1.544 2.734 0.274 0.925 0.387 1.871 0.295 2.846-0.141 1.512-0.681 2.854-1.625 4.028-0.704 0.876-1.562 1.583-2.602 2.032-0.528 0.228-1.076 0.438-1.636 0.561-0.725 0.159-1.467 0.223-2.219 0.132-0.735-0.088-1.445-0.24-2.131-0.518-1.431-0.581-2.558-1.525-3.416-2.803-0.444-0.662-0.776-1.381-0.972-2.146-0.207-0.818-0.333-1.659-0.22-2.513 0.06-0.449 0.098-0.907 0.212-1.343 0.17-0.647 0.43-1.266 0.772-1.845 0.456-0.771 1.037-1.437 1.72-2.013 0.477-0.402 1.084-0.324 1.386 0.171 0.245 0.403 0.127 0.882-0.313 1.226-0.743 0.582-1.277 1.329-1.633 2.187-0.426 1.026-0.569 2.104-0.346 3.202 0.381 1.873 1.419 3.26 3.138 4.116 0.838 0.417 1.733 0.624 2.668 0.574 1.684-0.09 3.089-0.762 4.188-2.063 0.369-0.438 0.667-0.917 0.883-1.438 0.292-0.708 0.45-1.452 0.442-2.43z"/>	<path d="m6.288 4.058c0-0.952-0.003-1.904 0-2.855 0.003-0.687 0.519-1.205 1.19-1.203 0.617 0.002 1.129 0.523 1.141 1.173 0.008 0.424 0.001 0.849 0.001 1.273 0 1.485 0.001 2.971-0.001 4.457 0 0.501-0.21 0.89-0.665 1.115-0.616 0.305-1.383-0.008-1.588-0.672-0.053-0.174-0.072-0.365-0.073-0.548-0.008-0.913-0.004-1.826-0.005-2.74z"/></g></svg><svg xmlns:xlink="http://www.w3.org/1999/xlink" id="password" xml:space="preserve" height="17" viewBox="62 59.103 15 17" width="15" version="1.1" y="364" x="0px" enable-background="new 62 59.103 15 17"><path d="m76.039 66.476c0.068-0.361 0.107-0.732 0.107-1.112 0-3.452-2.981-6.261-6.646-6.261s-6.646 2.809-6.646 6.261c0 0.38 0.038 0.751 0.107 1.112-0.577 0.337-0.961 0.926-0.961 1.6v6.129c0 1.048 0.929 1.897 2.075 1.897h10.85c1.146 0 2.074-0.85 2.074-1.897h0.001v-6.129c0-0.674-0.383-1.263-0.961-1.6zm-5.623 5.352v1.332c0 0.463-0.41 0.838-0.916 0.838s-0.916-0.375-0.916-0.838v-1.333c-0.587-0.297-0.986-0.867-0.986-1.524 0-0.961 0.851-1.74 1.902-1.74s1.902 0.779 1.902 1.74c0 0.657-0.398 1.228-0.986 1.525zm3.201-5.65h-8.234c-0.057-0.263-0.086-0.536-0.086-0.814 0-2.22 1.885-4.027 4.204-4.027s4.204 1.806 4.204 4.027c-0.001 0.278-0.031 0.551-0.088 0.814z"/></svg><svg xmlns:xlink="http://www.w3.org/1999/xlink" id="search" xml:space="preserve" height="15" viewBox="0 0 14.994 14.988" width="15" version="1.1" y="381" x="0px" enable-background="new 0 0 14.994 14.988">		<path fill="#323232" clip-rule="evenodd" d="m14.766 13.653l-3.306-3.319c-0.099-0.099-0.219-0.154-0.345-0.188 0.845-1.068 1.353-2.417 1.353-3.886 0-3.457-2.791-6.26-6.235-6.26-3.442 0-6.233 2.803-6.233 6.259 0 3.458 2.791 6.259 6.233 6.259 1.495 0 2.865-0.529 3.939-1.409 0.036 0.12 0.091 0.235 0.186 0.33l3.306 3.32c0.305 0.306 0.798 0.306 1.102 0 0.304-0.305 0.304-0.8 0-1.106zm-8.579-2.411c-2.795 0-5.062-2.265-5.062-5.059s2.267-5.059 5.062-5.059c2.796 0 5.063 2.265 5.063 5.059-0.001 2.795-2.268 5.059-5.063 5.059z" fill-rule="evenodd"/></svg><svg xmlns:xlink="http://www.w3.org/1999/xlink" id="soc_email" xml:space="preserve" height="20" viewBox="0 0 20 20" width="20" version="1.1" y="396" x="0px" enable-background="new 0 0 20 20"><path d="m15 0h-10c-2.762 0-5 2.238-5 5v10c0 2.762 2.238 5 5 5h10c2.762 0 5-2.238 5-5v-10c0-2.762-2.238-5-5-5zm-10.396 7.213l3.676 2.813-3.676 3.678v-6.491zm0.361 6.848l3.72-3.723 1.503 1.149 1.504-1.15 3.722 3.724h-10.449zm10.806-0.359l-3.674-3.677 3.674-2.813v6.49zm0-7.127l-5.584 4.281-5.583-4.281v-0.637h11.168v0.637z" fill="#FEFEFE"/></svg><svg xmlns:xlink="http://www.w3.org/1999/xlink" id="soc_fb" xml:space="preserve" height="20" viewBox="0 0 20 20" width="20" version="1.1" y="416" x="0px" enable-background="new 0 0 20 20"><path d="m15 0h-10c-2.762 0-5 2.238-5 5v10c0 2.762 2.238 5 5 5h10c2.762 0 5-2.238 5-5v-10c0-2.762-2.238-5-5-5zm-1.893 6.146h-1.127s-0.804-0.159-0.804 0.963v0.963h1.931v2.571h-1.926v5.782h-2.571v-5.782h-1.925v-2.571h1.768v-2.249s0.158-2.248 2.407-2.248h2.248v2.571z" fill="#FEFEFE"/></svg><svg xmlns:xlink="http://www.w3.org/1999/xlink" id="soc_twitter" xml:space="preserve" height="20" viewBox="0 0 20 20" width="20" version="1.1" y="436" x="0px" enable-background="new 0 0 20 20"><path d="m15 0h-10c-2.762 0-5 2.238-5 5v10c0 2.762 2.238 5 5 5h10c2.762 0 5-2.238 5-5v-10c0-2.762-2.238-5-5-5zm1.366 6.375s-0.144 0.575-0.719 1.003c-0.575 0.43-0.719 0.577-0.719 0.577s0.719 2.726-2.008 5.161c-2.721 2.436-6.593 1.574-6.878 1.433-0.286-0.144-1.29-0.72-1.29-0.72s1.575-0.285 2.294-0.575c0.718-0.285 1.003-0.575 1.003-0.575s-1.146-0.144-1.574-0.429c-0.429-0.285-0.719-1.146-0.719-1.146h1.146s-0.86-0.429-1.289-1.005c-0.426-0.575-0.426-1.43-0.426-1.43l0.718 0.142s-0.861-0.861-0.718-2.008c0.143-1.146 0.286-1.289 0.286-1.289s1.003 2.007 2.867 2.294c1.866 0.285 2.008 0.285 2.008 0.285-0.605-4.021 4.482-2.986 4.159-2.009 0 0 1.146-0.574 1.288-0.86 0.143-0.285-0.285 1.289-0.285 1.289l0.861-0.143-0.005 0.005z" fill="#FEFEFE"/></svg><svg xmlns:xlink="http://www.w3.org/1999/xlink" id="soc_vk" xml:space="preserve" height="20" viewBox="0 0 20 20" width="20" version="1.1" y="456" x="0px" enable-background="new 0 0 20 20"><g fill="#FEFEFE">	<path d="m10.048 8.936c0.174-0.01 0.347-0.056 0.532-0.143 0.199-0.093 0.337-0.221 0.413-0.389 0.078-0.163 0.113-0.357 0.113-0.578h0.01c0-0.158-0.041-0.327-0.123-0.496s-0.209-0.292-0.389-0.369c-0.163-0.071-0.357-0.112-0.588-0.117-0.225-0.005-0.562-0.011-1.012-0.011h-0.174v2.118h0.317c0.43 0 0.726-0.005 0.901-0.015z"/>	<path d="m10.998 10.777c-0.152-0.062-0.363-0.092-0.628-0.098-0.266-0.005-0.625-0.01-1.074-0.01h-0.461v2.501h0.134c0.653 0 1.104-0.006 1.354-0.015 0.251-0.011 0.506-0.067 0.768-0.18 0.225-0.097 0.394-0.24 0.502-0.435 0.106-0.188 0.158-0.404 0.158-0.645 0-0.312-0.062-0.548-0.19-0.727-0.126-0.171-0.312-0.305-0.563-0.391z"/>	<path d="m15 0h-10c-2.762 0-5 2.238-5 5v10c0 2.762 2.238 5 5 5h10c2.762 0 5-2.238 5-5v-10c0-2.762-2.238-5-5-5zm-0.947 13.247c-0.189 0.374-0.439 0.686-0.758 0.932-0.378 0.291-0.792 0.507-1.237 0.63-0.45 0.128-1.023 0.188-1.719 0.188h-4.005v-9.994h3.534c0.736 0 1.294 0.025 1.668 0.087 0.379 0.056 0.736 0.173 1.068 0.353 0.357 0.194 0.624 0.45 0.804 0.772 0.179 0.322 0.266 0.696 0.266 1.115 0 0.485-0.123 0.92-0.368 1.299-0.24 0.379-0.584 0.66-1.013 0.839v0.057c0.619 0.132 1.11 0.394 1.479 0.793 0.373 0.398 0.558 0.941 0.558 1.621h0.005c-0.001 0.495-0.093 0.93-0.282 1.308z"/></g></svg><svg xmlns:xlink="http://www.w3.org/1999/xlink" id="social_google" xml:space="preserve" height="20" viewBox="0 0 20 20" width="20" version="1.1" y="476" x="0px" enable-background="new 0 0 20 20"><g fill="#FEFEFE">	<path d="m8.216 5.153c-2.128 0.395-0.955 4.478 1.107 3.998 2.138-0.495 0.769-4.346-1.107-3.998z"/>	<path d="m9.737 11.623c-0.223-0.157-0.565-0.096-0.93-0.065h0.005c-1.243 0.101-2.486 0.454-2.497 1.738-0.015 1.526 2.922 2.148 4.241 1.314 0.363-0.233 0.804-0.662 0.712-1.37-0.085-0.652-1.015-1.254-1.531-1.617z"/>	<path d="m15 0h-10c-2.762 0-5 2.238-5 5v10c0 2.762 2.238 5 5 5h10c2.762 0 5-2.238 5-5v-10c0-2.762-2.238-5-5-5zm-2.897 13.746c-1.142 2.37-5.695 2.345-6.833 0.783-0.298-0.415-0.444-0.971-0.237-1.557 0.516-1.472 2.577-1.805 4.023-1.865-0.03-0.086-0.157-0.207-0.223-0.313-0.375-0.605-0.196-0.821-0.084-1.213-3.605 0.17-3.368-2.952-2.459-3.928 0.314-0.338 0.576-0.54 1.117-0.753 0.466-0.187 0.996-0.288 1.542-0.328 0.414-0.03 3.447-0.061 3.71-0.005-0.086 0.04-0.269 0.172-0.369 0.232-0.521 0.323-0.445 0.384-0.874 0.379-0.192-0.005-0.42-0.015-0.606 0.005 0.753 0.46 1.232 1.779 0.809 2.744-0.455 1.037-2.042 1.436-1.446 2.255 0.358 0.496 2.916 1.516 1.93 3.564zm4.478-3.654h-1.738l-0.006 1.643h-0.576l-0.02-1.648h-1.784l0.005-0.565h1.794v-1.66l0.602 0.005c-0.056 0.238-0.03 1.37-0.015 1.658h1.738v0.567z"/></g></svg><svg xmlns:xlink="http://www.w3.org/1999/xlink" id="top" xml:space="preserve" height="21" viewBox="0 0 26.703 20.953" width="27" version="1.1" y="496" x="0px" enable-background="new 0 0 26.703 20.953"><path fill="#fff" clip-rule="evenodd" d="m26.703 2.533c0 1.399-1.134 2.532-2.533 2.532h-21.638c-1.398 0-2.532-1.133-2.532-2.532s1.134-2.533 2.532-2.533h21.638c1.399 0 2.533 1.134 2.533 2.533z" fill-rule="evenodd"/><path fill="#fff" clip-rule="evenodd" d="m25.961 16.629l-10.766-10.765c-0.018-0.019-0.029-0.04-0.048-0.059-0.496-0.495-1.146-0.742-1.796-0.74-0.649-0.002-1.3 0.245-1.796 0.74-0.019 0.019-0.03 0.04-0.048 0.059l-10.765 10.765c-0.989 0.989-0.989 2.592 0 3.582 0.989 0.988 2.593 0.988 3.582 0l9.027-9.028 9.027 9.028c0.989 0.988 2.593 0.988 3.582 0 0.99-0.99 0.99-2.592 0.001-3.582z" fill-rule="evenodd"/></svg></svg>
